<svg width="15" height="14" viewBox="0 0 15 14" fill="none" xmlns="http://www.w3.org/2000/svg">
<path d="M3.61856 1.69215C3.61856 2.6267 2.80852 3.3843 1.80928 3.3843C0.810041 3.3843 0 2.6267 0 1.69215C0 0.757601 0.810041 0 1.80928 0C2.80852 0 3.61856 0.757601 3.61856 1.69215Z" fill="white"/>
<path d="M0.247423 4.6281H3.34021V14H0.247423V4.6281Z" fill="white"/>
<path d="M8.31959 4.6281H5.2268V14H8.31959C8.31959 14 8.31959 11.0496 8.31959 9.20486C8.31959 8.09762 8.69766 6.98554 10.2062 6.98554C11.911 6.98554 11.9008 8.43453 11.8928 9.55709C11.8824 11.0244 11.9072 12.5219 11.9072 14H15V9.05372C14.9738 5.89538 14.1508 4.44008 11.4433 4.44008C9.8354 4.44008 8.83871 5.17006 8.31959 5.83049V4.6281Z" fill="white"/>
</svg>
